<mxfile host="Electron" modified="2024-01-30T05:55:22.809Z" agent="Mozilla/5.0 (Windows NT 10.0; Win64; x64) AppleWebKit/537.36 (KHTML, like Gecko) draw.io/22.1.11 Chrome/114.0.5735.289 Electron/25.9.8 Safari/537.36" etag="mQV_sDgLdcqlL1ojVar2" version="22.1.11" type="device">
  <diagram name="Страница — 1" id="w_Y6nWaKLYI4So0ZZnmq">
    <mxGraphModel dx="1434" dy="844" grid="1" gridSize="10" guides="1" tooltips="1" connect="1" arrows="1" fold="1" page="1" pageScale="1" pageWidth="827" pageHeight="1169" math="0" shadow="0">
      <root>
        <mxCell id="0" />
        <mxCell id="1" parent="0" />
        <mxCell id="SAz6z-3_ypOV3huqlriM-3" value="" style="edgeStyle=orthogonalEdgeStyle;rounded=0;orthogonalLoop=1;jettySize=auto;html=1;" parent="1" source="SAz6z-3_ypOV3huqlriM-1" target="SAz6z-3_ypOV3huqlriM-2" edge="1">
          <mxGeometry relative="1" as="geometry" />
        </mxCell>
        <mxCell id="SAz6z-3_ypOV3huqlriM-1" value="Начало" style="ellipse;whiteSpace=wrap;html=1;" parent="1" vertex="1">
          <mxGeometry x="354" y="30" width="120" height="40" as="geometry" />
        </mxCell>
        <mxCell id="a4fdI5gTvwxDZaj7kbxA-2" value="" style="edgeStyle=orthogonalEdgeStyle;rounded=0;orthogonalLoop=1;jettySize=auto;html=1;" edge="1" parent="1" source="SAz6z-3_ypOV3huqlriM-2" target="a4fdI5gTvwxDZaj7kbxA-1">
          <mxGeometry relative="1" as="geometry" />
        </mxCell>
        <mxCell id="SAz6z-3_ypOV3huqlriM-2" value="number" style="shape=parallelogram;perimeter=parallelogramPerimeter;whiteSpace=wrap;html=1;fixedSize=1;" parent="1" vertex="1">
          <mxGeometry x="354" y="100" width="120" height="60" as="geometry" />
        </mxCell>
        <mxCell id="a4fdI5gTvwxDZaj7kbxA-5" value="" style="edgeStyle=orthogonalEdgeStyle;rounded=0;orthogonalLoop=1;jettySize=auto;html=1;" edge="1" parent="1" source="a4fdI5gTvwxDZaj7kbxA-1" target="a4fdI5gTvwxDZaj7kbxA-4">
          <mxGeometry relative="1" as="geometry" />
        </mxCell>
        <mxCell id="a4fdI5gTvwxDZaj7kbxA-1" value="result&lt;br&gt;razruad = 1000000000" style="rounded=0;whiteSpace=wrap;html=1;" vertex="1" parent="1">
          <mxGeometry x="319" y="180" width="190" height="60" as="geometry" />
        </mxCell>
        <mxCell id="a4fdI5gTvwxDZaj7kbxA-11" style="edgeStyle=orthogonalEdgeStyle;rounded=0;orthogonalLoop=1;jettySize=auto;html=1;entryX=0.5;entryY=0;entryDx=0;entryDy=0;" edge="1" parent="1" source="a4fdI5gTvwxDZaj7kbxA-3" target="a4fdI5gTvwxDZaj7kbxA-4">
          <mxGeometry relative="1" as="geometry">
            <Array as="points">
              <mxPoint x="180" y="250" />
              <mxPoint x="414" y="250" />
            </Array>
          </mxGeometry>
        </mxCell>
        <mxCell id="a4fdI5gTvwxDZaj7kbxA-3" value="razruad = razruad / 10" style="rounded=0;whiteSpace=wrap;html=1;" vertex="1" parent="1">
          <mxGeometry x="120" y="280" width="120" height="60" as="geometry" />
        </mxCell>
        <mxCell id="a4fdI5gTvwxDZaj7kbxA-8" value="" style="edgeStyle=orthogonalEdgeStyle;rounded=0;orthogonalLoop=1;jettySize=auto;html=1;" edge="1" parent="1" source="a4fdI5gTvwxDZaj7kbxA-4" target="a4fdI5gTvwxDZaj7kbxA-6">
          <mxGeometry relative="1" as="geometry" />
        </mxCell>
        <mxCell id="a4fdI5gTvwxDZaj7kbxA-10" value="" style="edgeStyle=orthogonalEdgeStyle;rounded=0;orthogonalLoop=1;jettySize=auto;html=1;" edge="1" parent="1" source="a4fdI5gTvwxDZaj7kbxA-4" target="a4fdI5gTvwxDZaj7kbxA-3">
          <mxGeometry relative="1" as="geometry" />
        </mxCell>
        <mxCell id="a4fdI5gTvwxDZaj7kbxA-19" value="" style="edgeStyle=orthogonalEdgeStyle;rounded=0;orthogonalLoop=1;jettySize=auto;html=1;" edge="1" parent="1" source="a4fdI5gTvwxDZaj7kbxA-4" target="a4fdI5gTvwxDZaj7kbxA-18">
          <mxGeometry relative="1" as="geometry" />
        </mxCell>
        <mxCell id="a4fdI5gTvwxDZaj7kbxA-4" value="number &amp;gt;= razruad ?&lt;br&gt;number &amp;gt; 0 ?" style="rhombus;whiteSpace=wrap;html=1;" vertex="1" parent="1">
          <mxGeometry x="309" y="270" width="210" height="80" as="geometry" />
        </mxCell>
        <mxCell id="a4fdI5gTvwxDZaj7kbxA-14" value="" style="edgeStyle=orthogonalEdgeStyle;rounded=0;orthogonalLoop=1;jettySize=auto;html=1;" edge="1" parent="1" source="a4fdI5gTvwxDZaj7kbxA-6" target="a4fdI5gTvwxDZaj7kbxA-13">
          <mxGeometry relative="1" as="geometry" />
        </mxCell>
        <mxCell id="a4fdI5gTvwxDZaj7kbxA-6" value="result = number / razruad" style="rounded=0;whiteSpace=wrap;html=1;" vertex="1" parent="1">
          <mxGeometry x="284" y="390" width="260" height="60" as="geometry" />
        </mxCell>
        <mxCell id="a4fdI5gTvwxDZaj7kbxA-7" value="YES" style="text;html=1;align=center;verticalAlign=middle;resizable=0;points=[];autosize=1;strokeColor=none;fillColor=none;" vertex="1" parent="1">
          <mxGeometry x="424" y="350" width="50" height="30" as="geometry" />
        </mxCell>
        <mxCell id="a4fdI5gTvwxDZaj7kbxA-9" value="NO" style="text;html=1;align=center;verticalAlign=middle;resizable=0;points=[];autosize=1;strokeColor=none;fillColor=none;" vertex="1" parent="1">
          <mxGeometry x="290" y="268" width="40" height="30" as="geometry" />
        </mxCell>
        <mxCell id="a4fdI5gTvwxDZaj7kbxA-23" value="" style="edgeStyle=orthogonalEdgeStyle;rounded=0;orthogonalLoop=1;jettySize=auto;html=1;" edge="1" parent="1" source="a4fdI5gTvwxDZaj7kbxA-13" target="a4fdI5gTvwxDZaj7kbxA-22">
          <mxGeometry relative="1" as="geometry" />
        </mxCell>
        <mxCell id="a4fdI5gTvwxDZaj7kbxA-13" value="razruad = razruad / 10" style="rounded=0;whiteSpace=wrap;html=1;" vertex="1" parent="1">
          <mxGeometry x="339" y="490" width="150" height="60" as="geometry" />
        </mxCell>
        <mxCell id="a4fdI5gTvwxDZaj7kbxA-17" style="edgeStyle=orthogonalEdgeStyle;rounded=0;orthogonalLoop=1;jettySize=auto;html=1;entryX=0.5;entryY=0;entryDx=0;entryDy=0;" edge="1" parent="1" source="a4fdI5gTvwxDZaj7kbxA-15" target="a4fdI5gTvwxDZaj7kbxA-4">
          <mxGeometry relative="1" as="geometry">
            <Array as="points">
              <mxPoint x="70" y="740" />
              <mxPoint x="70" y="250" />
              <mxPoint x="414" y="250" />
            </Array>
          </mxGeometry>
        </mxCell>
        <mxCell id="a4fdI5gTvwxDZaj7kbxA-15" value="Console.Write (&quot;result, &quot;)" style="rounded=0;whiteSpace=wrap;html=1;" vertex="1" parent="1">
          <mxGeometry x="150" y="710" width="180" height="60" as="geometry" />
        </mxCell>
        <mxCell id="a4fdI5gTvwxDZaj7kbxA-21" value="" style="edgeStyle=orthogonalEdgeStyle;rounded=0;orthogonalLoop=1;jettySize=auto;html=1;" edge="1" parent="1" source="a4fdI5gTvwxDZaj7kbxA-18" target="a4fdI5gTvwxDZaj7kbxA-20">
          <mxGeometry relative="1" as="geometry" />
        </mxCell>
        <mxCell id="a4fdI5gTvwxDZaj7kbxA-18" value="вывод в консоль" style="shape=document;whiteSpace=wrap;html=1;boundedLbl=1;" vertex="1" parent="1">
          <mxGeometry x="620" y="270" width="120" height="80" as="geometry" />
        </mxCell>
        <mxCell id="a4fdI5gTvwxDZaj7kbxA-20" value="конец" style="ellipse;whiteSpace=wrap;html=1;" vertex="1" parent="1">
          <mxGeometry x="620" y="390" width="120" height="40" as="geometry" />
        </mxCell>
        <mxCell id="a4fdI5gTvwxDZaj7kbxA-24" value="" style="edgeStyle=orthogonalEdgeStyle;rounded=0;orthogonalLoop=1;jettySize=auto;html=1;" edge="1" parent="1" source="a4fdI5gTvwxDZaj7kbxA-22" target="a4fdI5gTvwxDZaj7kbxA-15">
          <mxGeometry relative="1" as="geometry">
            <Array as="points">
              <mxPoint x="414" y="740" />
            </Array>
          </mxGeometry>
        </mxCell>
        <mxCell id="a4fdI5gTvwxDZaj7kbxA-28" value="" style="edgeStyle=orthogonalEdgeStyle;rounded=0;orthogonalLoop=1;jettySize=auto;html=1;" edge="1" parent="1" source="a4fdI5gTvwxDZaj7kbxA-22" target="a4fdI5gTvwxDZaj7kbxA-27">
          <mxGeometry relative="1" as="geometry" />
        </mxCell>
        <mxCell id="a4fdI5gTvwxDZaj7kbxA-22" value="result &amp;gt; 0" style="rhombus;whiteSpace=wrap;html=1;" vertex="1" parent="1">
          <mxGeometry x="374" y="600" width="80" height="80" as="geometry" />
        </mxCell>
        <mxCell id="a4fdI5gTvwxDZaj7kbxA-25" value="YES" style="text;html=1;align=center;verticalAlign=middle;resizable=0;points=[];autosize=1;strokeColor=none;fillColor=none;" vertex="1" parent="1">
          <mxGeometry x="415" y="688" width="50" height="30" as="geometry" />
        </mxCell>
        <mxCell id="a4fdI5gTvwxDZaj7kbxA-29" value="" style="edgeStyle=orthogonalEdgeStyle;rounded=0;orthogonalLoop=1;jettySize=auto;html=1;" edge="1" parent="1" source="a4fdI5gTvwxDZaj7kbxA-27" target="a4fdI5gTvwxDZaj7kbxA-15">
          <mxGeometry relative="1" as="geometry" />
        </mxCell>
        <mxCell id="a4fdI5gTvwxDZaj7kbxA-27" value="result = 0" style="rounded=0;whiteSpace=wrap;html=1;" vertex="1" parent="1">
          <mxGeometry x="180" y="610" width="120" height="60" as="geometry" />
        </mxCell>
        <mxCell id="a4fdI5gTvwxDZaj7kbxA-30" value="No" style="text;html=1;align=center;verticalAlign=middle;resizable=0;points=[];autosize=1;strokeColor=none;fillColor=none;" vertex="1" parent="1">
          <mxGeometry x="330" y="598" width="40" height="30" as="geometry" />
        </mxCell>
      </root>
    </mxGraphModel>
  </diagram>
</mxfile>
